PathFileType	4	(X/Y/Z)	0_coords_data.trc
DataRate	CameraRate	NumFrames	NumMarkers	Units	OrigDataRate	OrigDataStartFrame	OrigNumFrames
30.0	30.0	6	21	m	30.0	20	59
Frame#	Time	THUMB_TIP	THUMB_IP	THUMB_MCP	THUMB_CMC	INDEX_TIP	INDEX_DIP	INDEX_PIP	INDEX_MCP	MIDDLE_TIP	MIDDLE_DIP	MIDDLE_PIP	MIDDLE_MCP	RING_TIP	RING_DIP	RING_PIP	RING_MCP	PINKY_TIP	PINKY_DIP	PINKY_PIP	PINKY_MCP	WRIST
X1	Y1	Z1	X2	Y2	Z2	X3	Y3	Z3	X4	Y4	Z4	X5	Y5	Z5	X6	Y6	Z6	X7	Y7	Z7	X8	Y8	Z8	X9	Y9	Z9	X10	Y10	Z10	X11	Y11	Z11	X12	Y12	Z12	X13	Y13	Z13	X14	Y14	Z14	X15	Y15	Z15	X16	Y16	Z16	X17	Y17	Z17	X18	Y18	Z18	X19	Y19	Z19	X20	Y20	Z20	X21	Y21	Z21
18	0.6333333333333304	0.5418112354580833	-0.02770860332963765	-0.1306403105735553	0.5245126626790396	-0.02089245129626005	-0.11713847916940817	0.49410783973737094	-0.015360816732167715	-0.11342798581472929	0.4707833690293234	-0.03015267071886696	-0.07839856786601646	0.5714012022075448	0.05584918978315301	-0.15273035632094867	0.5570728314430589	0.04775313469451703	-0.14517048309203812	0.5379883986026247	0.037267212742041145	-0.13260705613258383	0.506711344858171	0.0226694407540452	-0.10766137402018139	0.5155285581258131	-0.010262900242740458	-0.11618464724333044	0.5312082322506685	-0.007456174481946909	-0.12480265802552593	0.5483406673900677	0.015038138074739082	-0.11773901032788436	0.5203129525323398	0.02433749698376575	-0.08421115556896774	0.531569539059399	-0.023353842505277056	-0.10402943278331916	0.5475921522057887	-0.019380581791793694	-0.11127436668666363	0.5615052457440448	-0.00012424597003235505	-0.10380447124460462	0.5341225151473633	0.00436120179214039	-0.07439719905824926	0.5948923614344006	0.023677228989600008	-0.07642731847460277	0.5817612604063447	0.012826804203185826	-0.0747413565102164	0.5645289846983749	0.0012619937770018685	-0.07156081367432565	0.5346681182303243	-0.018158886083384007	-0.06590028982703788	0.462283081001861	-0.023011742144276925	-0.051989820119430985
19	0.6666666666666637	0.5418618493975825	-0.02773686161264144	-0.13060127380869674	0.5245619349098339	-0.02090790066063175	-0.1171076363809122	0.49415437343778934	-0.01538511310634294	-0.11340641726364475	0.47080401069784417	-0.03016410124694935	-0.07838882069487946	0.5714815372013228	0.05572895492198637	-0.15275012977407187	0.5571438239852095	0.04765654697215771	-0.14518268571256532	0.5380583906431853	0.03717712650700089	-0.13261535449780038	0.506775485661553	0.022609130224370166	-0.10765960497550736	0.5155821407355942	-0.010308272881565106	-0.11617190708296365	0.5312618037524066	-0.007503446331453056	-0.12479055637986564	0.5484012037121871	0.01499068159340966	-0.11774323576004209	0.5203648444553902	0.02426983787415793	-0.08421701110916219	0.5316388306890487	-0.023446655263473448	-0.10406843870609916	0.5476604794621073	-0.01941713157234881	-0.11128437311651451	0.5615398436429633	-0.00013592240861382	-0.10381589254015411	0.5341450840198282	0.0042906492953797	-0.07441090245105436	0.5948849312792157	0.023634040391449784	-0.07649155576936695	0.5817524797905338	0.012788286363667911	-0.07478617092533141	0.5645156759626263	0.0012352703966640455	-0.07158735319617154	0.5346688942220057	-0.01820277589253949	-0.06591148963310511	0.4622830810018609	-0.023011742144276925	-0.051989820119430985
20	0.6999999999999968	0.5419119742783536	-0.027756977620825185	-0.1305645624771834	0.5246083460472517	-0.02092706912962805	-0.11707616746362864	0.4941986533991287	-0.015410837459587712	-0.11338268926426998	0.47082328267744855	-0.030180929340960838	-0.07837802629717633	0.5715329287554676	0.05563863305564243	-0.15276175563335515	0.5571892343269301	0.04758585728974274	-0.14518473559874495	0.5380954914930169	0.03712295549201827	-0.13261626299609525	0.5068026278553284	0.02259425510655466	-0.10765009299622419	0.5156510914691039	-0.01037839668807572	-0.11621701762986186	0.5313433988061451	-0.007520048317399164	-0.12479497397340283	0.5484525017483242	0.014995045593873324	-0.11774098980270165	0.520410501854285	0.024221863566576074	-0.0842050390477086	0.5316939820075901	-0.023482741263610385	-0.10408812187377381	0.5477158087532303	-0.019409370618752364	-0.11127899938088637	0.5615821472200903	-0.00011345498788961628	-0.10382431786595148	0.5341633114881339	0.0042276980563145106	-0.07442903471795659	0.5948727578491221	0.023600717721745212	-0.07654263269422962	0.581735052985587	0.012764661544308331	-0.07481619200944511	0.5645014939847586	0.001209183149017301	-0.0716087970819494	0.5346733807334151	-0.018249059330191608	-0.06590407005207843	0.4622830810018609	-0.023011742144276925	-0.051989820119430985
21	0.7333333333333302	0.5419751393070472	-0.027755603963024233	-0.13051607530170328	0.524651741319557	-0.02091965382936578	-0.11705614707243112	0.49423836693581547	-0.015422583086244446	-0.11336441687650828	0.4708460367689822	-0.030187447676163992	-0.07836887911799961	0.5715806103223934	0.0555545062841315	-0.15276059954193782	0.5572289202615371	0.047520500999336246	-0.14517879556920155	0.5381293518750387	0.03706968575250391	-0.13260911851980822	0.5068201749504554	0.022609186156335004	-0.10762381312374902	0.5157277590403194	-0.01036821457763426	-0.11619698388391575	0.5314090017972837	-0.00755510462419795	-0.12481005755055963	0.5485025675930341	0.014974034498692168	-0.11776325339776739	0.5204502520784604	0.024159548157331123	-0.0842245913180456	0.5317357140846224	-0.023515572179408917	-0.10408977745388237	0.5477555572134863	-0.01939678623808594	-0.11125917272099894	0.5616169057240203	-9.052875486348366e-05	-0.10382200804210168	0.534175645543271	0.004187413581027588	-0.07443838534061692	0.594837340718006	0.023603950097532356	-0.0765788262477301	0.5817009249154016	0.01276804607706028	-0.07484165500683215	0.5644704459737239	0.0012109523253992505	-0.07162355021430022	0.5346771652596666	-0.018295085405649725	-0.06590005763299278	0.4622830810018609	-0.023011742144276925	-0.051989820119430985
22	0.7666666666666633	0.5420369174925702	-0.027732508738990913	-0.1303999065871546	0.5246912563556321	-0.020886391784757152	-0.11697386017089845	0.4942656496293679	-0.015422622063018254	-0.11333384976342425	0.4708447001172462	-0.03020453230004083	-0.07836465969995188	0.5715657043858424	0.05549669785167921	-0.15279220748808808	0.5572162424879075	0.04746340165229668	-0.14520543640859046	0.5381196604558837	0.03700558373196261	-0.13263704621575673	0.5067932376769307	0.02264595107505496	-0.10761521015536779	0.5157903778478339	-0.010337832276760328	-0.1161608625167615	0.5314651171892637	-0.007560017699186128	-0.12479719812573609	0.5485135975282953	0.015014143851699413	-0.11778534399118823	0.5204678983425857	0.02413796753892683	-0.08422431719657009	0.5317725394865697	-0.02349574857943726	-0.10406318477699195	0.547778599880224	-0.019349204602383097	-0.11124734817442716	0.5616350579036558	-3.480212498152557e-05	-0.10382222817635173	0.5341735704954835	0.004184155091172981	-0.07444897600130201	0.5947534256716063	0.02372608115441066	-0.07652904335303845	0.5816327996549914	0.012868118916461224	-0.07481037265410034	0.5644263016704119	0.00126770221365613	-0.07161995286542955	0.5346758887747466	-0.018307912675915472	-0.06591104007641008	0.4622830810018609	-0.023011742144276925	-0.051989820119430985
23	0.7999999999999965	0.5421848791420781	-0.02762932775778104	-0.13020556153374968	0.5247943051750241	-0.020811955393504777	-0.11682305910919444	0.49435450747699905	-0.015381562945505745	-0.11325240735299852	0.4708770490136477	-0.030226878550790204	-0.07834803013922914	0.5715738404949564	0.05541299700839353	-0.15283373587766874	0.5572263310146582	0.04738317489102928	-0.14523959810724063	0.5381345745134679	0.036936328393609275	-0.13265476338609306	0.5068071905721503	0.02268372796023077	-0.10757300726177554	0.5158232930950346	-0.010259553790375908	-0.11603396344060202	0.5314730888012786	-0.0075578692966935535	-0.12473940973872044	0.5485279122023512	0.01502622115479113	-0.11777511456710488	0.5205022867540271	0.024119601506806365	-0.08418906578187513	0.5317618891657651	-0.023376915515885832	-0.10392929810011414	0.5477432567245403	-0.01930191262072145	-0.11120873780078694	0.5616381835985903	8.163370367464395e-07	-0.10382526700798683	0.5341843646720976	0.004165422749970227	-0.0744370939824871	0.5945923290839434	0.023939025401978786	-0.07646307688925036	0.5815095742169866	0.013029662896144378	-0.07478160883798979	0.5643444500300491	0.001356446121943855	-0.07163414306541366	0.5346745454370996	-0.018342234973091176	-0.065929568097777	0.4622830810018608	-0.023011742144276925	-0.051989820119430985
